<?xml version="1.0" standalone="no"?>
<!DOCTYPE svg PUBLIC "-//W3C//DTD SVG 20010904//EN"
 "http://www.w3.org/TR/2001/REC-SVG-20010904/DTD/svg10.dtd">
<svg version="1.0" xmlns="http://www.w3.org/2000/svg"
 width="500.000000pt" height="500.000000pt" viewBox="0 0 500.000000 500.000000"
 preserveAspectRatio="xMidYMid meet">
<metadata>
Created by potrace 1.14, written by Peter Selinger 2001-2017
</metadata>
<g transform="translate(0.000000,500.000000) scale(0.100000,-0.100000)"
fill="#000000" stroke="none">
<path d="M2757 3506 c-30 -28 -60 -83 -52 -96 3 -5 -7 -6 -22 -3 -16 3 -36 6
-45 7 -21 0 -21 -2 -8 30 6 16 6 26 0 26 -5 0 -7 6 -4 14 10 27 -58 45 -85 23
-12 -10 -13 -9 -6 2 4 7 -6 3 -23 -9 -31 -23 -62 -74 -62 -102 0 -14 -19 -38
-31 -38 -3 0 -4 12 -2 28 15 86 14 98 -2 112 -12 10 -24 11 -50 2 -19 -5 -33
-7 -30 -2 10 16 -40 19 -65 3 -30 -20 -50 -45 -44 -55 3 -5 0 -8 -6 -8 -6 0
-9 -4 -5 -9 3 -5 1 -12 -4 -15 -12 -8 -11 -58 1 -73 6 -7 15 -10 21 -6 6 3 7
1 3 -5 -4 -7 -2 -12 4 -12 6 0 8 -5 5 -10 -16 -26 48 -50 71 -27 8 8 33 -22
34 -41 0 -9 -12 -11 -47 -7 -70 8 -76 1 -76 -95 1 -67 4 -84 19 -95 11 -7 23
-11 27 -8 15 9 158 12 181 4 36 -13 51 15 50 96 -1 91 -12 106 -70 97 -39 -6
-43 -4 -41 15 1 12 5 21 9 21 4 0 8 8 8 17 0 14 3 13 20 -5 22 -24 36 -29 24
-10 -5 7 -3 8 7 2 8 -4 23 -7 35 -6 27 4 74 -15 74 -28 0 -6 -4 -9 -9 -5 -13
7 -30 -78 -18 -86 6 -4 6 -15 2 -25 -26 -60 26 -112 69 -69 19 19 25 19 48 -2
16 -14 22 -14 43 -3 17 9 28 10 37 2 18 -14 67 -10 61 6 -8 18 16 15 44 -7 26
-21 53 -18 53 5 0 20 17 17 47 -5 20 -16 29 -18 51 -10 15 6 43 8 63 5 47 -8
63 10 53 58 -4 25 -3 36 5 36 7 0 9 5 5 12 -4 6 -1 16 7 22 23 18 16 40 -20
58 -26 12 -40 14 -58 5 -12 -5 -23 -14 -23 -19 0 -14 -19 -9 -41 13 -20 20
-21 20 -40 3 -18 -17 -22 -17 -47 -2 -25 15 -30 15 -55 0 -34 -21 -55 -6 -37
28 15 29 6 64 -21 76 -20 9 -20 10 8 40 36 39 55 72 48 84 -3 4 0 10 6 12 7 2
7 11 -1 29 -15 34 -59 37 -93 5z"/>
<path d="M1940 3424 c-75 -32 -116 -100 -107 -175 7 -59 32 -110 58 -116 10
-3 19 -9 19 -14 0 -11 44 -29 85 -34 41 -6 115 21 143 51 65 69 69 178 9 242
-53 58 -137 76 -207 46z"/>
</g>
</svg>
